<?xml version="1.0" encoding="UTF-8"?>
<!DOCTYPE svg PUBLIC "-//W3C//DTD SVG 1.1//EN" "http://www.w3.org/Graphics/SVG/1.1/DTD/svg11.dtd">
<!-- Creator: CorelDRAW X8 -->
<svg xmlns="http://www.w3.org/2000/svg" xml:space="preserve" width="162.134mm" height="80.33mm" version="1.1" style="shape-rendering:geometricPrecision; text-rendering:geometricPrecision; image-rendering:optimizeQuality; fill-rule:evenodd; clip-rule:evenodd"
viewBox="0 0 16213 8033"
 xmlns:xlink="http://www.w3.org/1999/xlink">
 <defs>
  <style type="text/css">
   <![CDATA[
    .fil2 {fill:#FEFEFE}
    .fil0 {fill:#009551}
    .fil1 {fill:#006199}
   ]]>
  </style>
 </defs>
 <g id="Camada_x0020_1">
  <metadata id="CorelCorpID_0Corel-Layer"/>
  <g id="UFLA_chapada.cdr">
   <path class="fil0" d="M7493 1964l516 0 0 2034c-2,404 -521,412 -516,0l0 -2034zm-1136 0l542 0 0 2094c0,402 285,812 859,812 574,0 849,-410 849,-812l0 -2094 542 0 0 238c102,-136 327,-238 568,-238l1247 0 1110 0 0 1648c0,28 0,56 0,84 0,38 5,52 36,52 49,0 97,0 146,0 26,1 36,-13 35,-46l1 -90 0 -285c0,-799 411,-1363 1317,-1363 906,0 1367,564 1367,1360l0 2063 -461 0 0 -2055c0,-1083 -1736,-1154 -1736,0l0 940 -1061 0c-115,0 -186,-71 -186,-217l0 -1527 -1815 0c-296,-3 -568,295 -568,572l0 2287 -542 0 0 -269c-234,159 -281,269 -849,269 -568,0 -1401,-301 -1401,-1402l0 -2021zm3360 1517l0 -240c0,-141 128,-141 288,-141l959 0 0 1172c0,512 463,598 1110,598l1276 0 0 -1478c0,-467 568,-467 568,0l0 1995 -2260 0c-506,0 -1009,-220 -1176,-846l-254 0 0 846 -511 0 0 -1389 671 0 0 -517 -671 0zm-6691 2719l66 0 0 428c0,82 37,123 112,123 76,0 113,-39 113,-118l0 -433 66 0 0 453c0,52 -16,91 -48,118 -32,26 -75,40 -129,40 -59,0 -104,-14 -135,-42 -30,-27 -45,-67 -45,-118l0 -451zm174 -59l0 0zm38 654l0 0zm-276 -611l0 0zm546 16l108 0 189 539 0 0 0 -539 66 0 0 595 -108 0 -189 -542 0 0 0 542 -66 0 0 -595zm189 -59l0 0zm18 654l0 0zm-268 -611l0 0zm563 16l66 0 0 595 -66 0 0 -595zm34 -59l0 0zm-6 654l0 0zm-106 -611l0 0zm441 565l0 0 141 -549 74 0 -174 595 -81 0 -174 -595 73 0 141 549zm280 46l0 -595 295 0 0 59 -229 0 0 197 215 0 0 60 -215 0 0 220 231 0 0 59 -297 0zm150 -654l0 0zm79 654l0 0zm-288 -611l0 0zm843 611l-78 0c-7,-27 -12,-51 -15,-73 -3,-21 -4,-44 -4,-66 0,-42 -9,-73 -27,-92 -19,-20 -44,-29 -75,-29l-113 0 0 260 -66 0 0 -595 156 0c75,0 127,14 154,42 28,28 41,67 41,117 0,82 -38,130 -116,142 41,6 68,17 83,34 14,17 22,42 24,75 1,30 5,73 12,129 5,27 13,41 24,42l0 14zm-94 -429c0,-71 -42,-107 -125,-107l-93 0 0 216 104 0c76,0 114,-36 114,-109zm-128 -225l0 0zm23 654l0 0zm-247 -611l0 0zm529 422l68 0 0 0 0 30c0,41 9,71 27,88 18,18 46,27 84,27 37,0 66,-9 84,-29 19,-19 29,-45 29,-77 0,-30 -5,-52 -14,-66 -9,-14 -24,-25 -46,-34l-123 -47c-42,-17 -70,-38 -83,-62 -13,-24 -20,-53 -20,-88 0,-48 15,-87 46,-118 30,-30 70,-46 119,-46 55,0 97,14 126,41 29,27 44,60 44,99 0,9 0,19 -1,28l-68 0c1,-6 1,-14 1,-22 0,-22 -9,-42 -26,-60 -17,-17 -39,-26 -67,-26 -37,0 -64,9 -81,26 -17,18 -25,44 -25,80 0,40 19,68 59,83l108 42c46,18 77,38 94,61 16,22 25,53 25,93 0,54 -16,98 -47,132 -31,33 -77,50 -138,50 -54,0 -96,-15 -128,-44 -32,-29 -47,-75 -47,-137l0 -24 0 0zm176 -465l0 0zm4 654l0 0zm296 -595l66 0 0 595 -66 0 0 -595zm34 -59l0 0zm-6 654l0 0zm-106 -611l0 0zm285 611l0 -595 165 0c68,0 120,20 154,61 34,41 51,118 51,232 0,98 -15,172 -47,224 -31,52 -81,78 -149,78l-174 0zm66 -59l105 0c45,0 78,-18 100,-52 21,-35 31,-98 31,-190 0,-77 -9,-135 -29,-175 -19,-40 -54,-60 -105,-60l-102 0 0 477zm93 -595l0 0zm-223 43l0 0zm493 611l167 -595 88 0 168 595 -74 0 -45 -170 0 0 -188 0 0 0 -43 170 -73 0zm132 -230l0 0 156 0 0 0 -78 -321 0 0 -78 321zm78 -424l0 0zm161 654l0 0zm-379 -611l0 0zm506 611l0 -595 165 0c68,0 119,20 153,61 35,41 52,118 52,232 0,98 -16,172 -47,224 -31,52 -81,78 -150,78l-173 0zm66 -59l104 0c46,0 79,-18 100,-52 22,-35 32,-98 32,-190 0,-77 -10,-135 -29,-175 -19,-40 -55,-60 -105,-60l-102 0 0 477zm93 -595l0 0zm-224 43l0 0zm544 611l0 -595 295 0 0 59 -229 0 0 197 215 0 0 60 -215 0 0 220 231 0 0 59 -297 0zm150 -654l0 0zm79 654l0 0zm-288 -611l0 0zm655 611l0 -595 276 0 0 59 -211 0 0 194 196 0 0 60 -196 0 0 282 -65 0zm352 0l0 -595 295 0 0 59 -229 0 0 197 215 0 0 60 -215 0 0 220 231 0 0 59 -297 0zm150 -654l0 0zm80 654l0 0zm-288 -611l0 0zm461 611l0 -595 165 0c68,0 120,20 154,61 34,41 51,118 51,232 0,98 -15,172 -47,224 -31,52 -81,78 -149,78l-174 0zm66 -59l105 0c45,0 78,-18 100,-52 21,-35 31,-98 31,-190 0,-77 -9,-135 -29,-175 -19,-40 -54,-60 -105,-60l-102 0 0 477zm93 -595l0 0zm-223 43l0 0zm543 611l0 -595 296 0 0 59 -230 0 0 197 215 0 0 60 -215 0 0 220 232 0 0 59 -298 0zm150 -654l0 0zm80 654l0 0zm-288 -611l0 0zm843 611l-79 0c-7,-27 -12,-51 -14,-73 -3,-21 -4,-44 -4,-66 0,-42 -10,-73 -28,-92 -18,-20 -43,-29 -75,-29l-112 0 0 260 -66 0 0 -595 156 0c75,0 126,14 153,42 28,28 42,67 42,117 0,82 -39,130 -116,142 40,6 68,17 82,34 15,17 23,42 24,75 1,30 6,73 13,129 5,27 13,41 24,42l0 14zm-95 -429c0,-71 -42,-107 -125,-107l-92 0 0 216 103 0c76,0 114,-36 114,-109zm-127 -225l0 0zm22 654l0 0zm-246 -611l0 0zm493 611l168 -595 87 0 168 595 -74 0 -45 -170 0 0 -188 0 0 0 -43 170 -73 0zm132 -230l0 0 156 0 0 0 -78 -321 0 0 -78 321zm78 -424l0 0zm162 654l0 0zm-380 -611l0 0zm507 16l66 0 0 536 242 0 0 59 -308 0 0 -595zm60 -59l0 0zm110 654l0 0zm-236 -611l0 0zm661 611l0 -595 165 0c68,0 119,20 153,61 35,41 52,118 52,232 0,98 -16,172 -47,224 -31,52 -81,78 -150,78l-173 0zm66 -59l104 0c46,0 79,-18 100,-52 21,-35 32,-98 32,-190 0,-77 -10,-135 -29,-175 -20,-40 -55,-60 -106,-60l-101 0 0 477zm93 -595l0 0zm-224 43l0 0zm544 611l0 -595 295 0 0 59 -229 0 0 197 215 0 0 60 -215 0 0 220 231 0 0 59 -297 0zm150 -654l0 0zm79 654l0 0zm-288 -611l0 0zm662 16l66 0 0 536 242 0 0 59 -308 0 0 -595zm60 -59l0 0zm109 654l0 0zm-235 -611l0 0zm405 611l168 -595 87 0 168 595 -74 0 -45 -170 0 0 -188 0 0 0 -43 170 -73 0zm132 -230l0 0 156 0 0 0 -78 -321 0 0 -78 321zm78 -424l0 0zm162 654l0 0zm-380 -611l0 0zm662 565l0 0 141 -549 74 0 -174 595 -82 0 -173 -595 73 0 141 549zm667 46l-78 0c-7,-27 -12,-51 -15,-73 -3,-21 -4,-44 -4,-66 0,-42 -9,-73 -27,-92 -19,-20 -44,-29 -75,-29l-113 0 0 260 -66 0 0 -595 156 0c75,0 126,14 154,42 28,28 41,67 41,117 0,82 -38,130 -116,142 41,6 68,17 83,34 14,17 22,42 24,75 1,30 5,73 12,129 5,27 13,41 24,42l0 14zm-95 -429c0,-71 -41,-107 -124,-107l-93 0 0 216 103 0c76,0 114,-36 114,-109zm-127 -225l0 0zm22 654l0 0zm-246 -611l0 0zm493 611l168 -595 88 0 167 595 -73 0 -46 -170 0 0 -188 0 0 0 -42 170 -74 0zm132 -230l0 0 156 0 0 0 -78 -321 0 0 -78 321zm78 -424l0 0zm162 654l0 0zm-380 -611l0 0zm485 422l68 0 0 0 0 30c0,41 9,71 27,88 18,18 47,27 85,27 37,0 65,-9 84,-29 19,-19 28,-45 28,-77 0,-30 -4,-52 -13,-66 -9,-14 -25,-25 -46,-34l-123 -47c-42,-17 -70,-38 -84,-62 -13,-24 -19,-53 -19,-88 0,-48 15,-87 45,-118 31,-30 71,-46 119,-46 55,0 97,14 126,41 30,27 45,60 45,99 0,9 -1,19 -2,28l-68 0c1,-6 2,-14 2,-22 -1,-22 -9,-42 -26,-60 -17,-17 -39,-26 -67,-26 -37,0 -64,9 -81,26 -17,18 -26,44 -26,80 0,40 20,68 59,83l109 42c46,18 77,38 93,61 17,22 25,53 25,93 0,54 -15,98 -46,132 -31,33 -77,50 -138,50 -54,0 -97,-15 -128,-44 -32,-29 -48,-75 -48,-137l0 -24 0 0zm176 -465l0 0zm4 654l0 0z"/>
   <path class="fil1" d="M3588 1222c1304,0 2367,1063 2367,2366 0,894 -500,1674 -1234,2076l10269 0 0 280 -11186 0c-3,1 -6,1 -9,1l801 -3929 -3190 2486c-118,-282 -184,-590 -184,-914 0,-1303 1063,-2366 2366,-2366zm-10 4732c-95,0 -189,-6 -281,-18l597 -2760 -2224 1794c-60,-83 -115,-170 -164,-260l2815 -2206 -743 3450zm-552 -67c-483,-119 -908,-386 -1224,-750l1817 -1472 -593 2222z"/>
   <path class="fil2" d="M3797 5936c-64,6 -129,8 -195,8 -7,0 -15,0 -22,0l741 -3440 -2795 2191c-36,-68 -69,-138 -99,-210l3169 -2469 -799 3920zm-498 -11c-91,-12 -181,-29 -269,-51l589 -2209 -1801 1458c-46,-54 -89,-110 -130,-167l2206 -1780 -595 2749z"/>
  </g>
 </g>
</svg>
