<?xml version="1.0" encoding="UTF-8"?>
<!DOCTYPE svg PUBLIC "-//W3C//DTD SVG 1.1//EN" "http://www.w3.org/Graphics/SVG/1.1/DTD/svg11.dtd">
<!-- Creator: CorelDRAW X8 -->
<svg xmlns="http://www.w3.org/2000/svg" xml:space="preserve" width="162.134mm" height="80.33mm" version="1.1" style="shape-rendering:geometricPrecision; text-rendering:geometricPrecision; image-rendering:optimizeQuality; fill-rule:evenodd; clip-rule:evenodd"
viewBox="0 0 16213 8033"
 xmlns:xlink="http://www.w3.org/1999/xlink">
 <defs>
  <style type="text/css">
   <![CDATA[
    .fil3 {fill:none}
    .fil2 {fill:#FEFEFE}
    .fil0 {fill:#009551}
    .fil1 {fill:#006199}
   ]]>
  </style>
    <clipPath id="id0">
     <path d="M3586 1222c1302,0 2363,1062 2363,2364 0,892 -499,1671 -1232,2073l10258 0 0 280 -11174 0c-3,1 -6,1 -8,1l799 -3925 -3186 2483c-118,-281 -184,-589 -184,-912 0,-1302 1062,-2364 2364,-2364zm-11 4727c-95,0 -188,-6 -280,-18l596 -2757 -2222 1792c-60,-83 -114,-170 -163,-260l2812 -2203 -743 3446zm-551 -67c-482,-119 -907,-386 -1223,-750l1815 -1470 -592 2220z"/>
    </clipPath>
      <mask id="id1">
  <linearGradient id="id2" gradientUnits="userSpaceOnUse" x1="3677.28" y1="6982.78" x2="3677.28" y2="2905.71">
   <stop offset="0" style="stop-opacity:1; stop-color:white"/>
   <stop offset="1" style="stop-opacity:0; stop-color:white"/>
  </linearGradient>
       <rect style="fill:url(#id2)" x="1352" y="687" width="4441" height="4441"/>
      </mask>
      <mask id="id3">
  <linearGradient id="id4" gradientUnits="userSpaceOnUse" x1="3476.44" y1="-1294.4" x2="3476.44" y2="2495.07">
   <stop offset="0" style="stop-opacity:1; stop-color:white"/>
   <stop offset="1" style="stop-opacity:0; stop-color:white"/>
  </linearGradient>
       <rect style="fill:url(#id4)" x="2144" y="1290" width="2816" height="1758"/>
      </mask>
      <mask id="id5">
  <linearGradient id="id6" gradientUnits="userSpaceOnUse" x1="6295.05" y1="2224.05" x2="4449.41" y2="1932.63">
   <stop offset="0" style="stop-opacity:1; stop-color:white"/>
   <stop offset="1" style="stop-opacity:0; stop-color:white"/>
  </linearGradient>
       <rect style="fill:url(#id6)" x="2144" y="1290" width="2816" height="1758"/>
      </mask>
      <mask id="id7">
  <linearGradient id="id8" gradientUnits="userSpaceOnUse" x1="3722.29" y1="6633.79" x2="3722.29" y2="4544.83">
   <stop offset="0" style="stop-opacity:1; stop-color:white"/>
   <stop offset="1" style="stop-opacity:0; stop-color:white"/>
  </linearGradient>
       <rect style="fill:url(#id8)" x="1240" y="1242" width="13745" height="4708"/>
      </mask>
 </defs>
 <g id="Camada_x0020_1">
  <metadata id="CorelCorpID_0Corel-Layer"/>
  <g id="_2115025110768">
   <path class="fil0" d="M7487 1963l515 0 0 2032c-3,404 -521,412 -515,0l0 -2032zm-1136 0l542 0 0 2092c0,401 285,811 858,811 573,0 848,-410 848,-811l0 -2092 541 0 0 238c102,-136 327,-238 568,-238l1245 0 1109 0 0 1646c0,28 0,57 0,85 1,38 5,51 36,52 49,0 97,-1 146,-1 26,1 36,-13 35,-46l1 -90 0 -284c0,-798 410,-1362 1316,-1362 905,0 1365,564 1365,1359l0 2060 -460 0 0 -2052c0,-1082 -1735,-1153 -1735,0l0 939 -1059 0c-115,0 -186,-71 -186,-217l0 -1525 -1813 0c-296,-3 -568,294 -568,571l0 2284 -541 0 0 -268c-233,159 -280,268 -848,268 -568,0 -1400,-300 -1400,-1400l0 -2019zm3357 1515l0 -239c0,-141 128,-141 288,-141l957 0 0 1171c0,511 463,597 1109,597l1275 0 0 -1476c0,-467 567,-467 567,0l0 1992 -2258 0c-504,0 -1007,-219 -1174,-845l-254 0 0 845 -510 0 0 -1387 670 0 0 -517 -670 0zm-6684 2716l66 0 0 428c0,82 37,123 112,123 75,0 113,-39 113,-118l0 -433 66 0 0 454c0,51 -16,90 -48,117 -32,26 -75,40 -129,40 -59,0 -104,-14 -135,-42 -30,-27 -45,-67 -45,-118l0 -451zm174 -59l0 0zm37 654l0 0zm-275 -610l0 0zm545 15l108 0 190 539 0 0 0 -539 66 0 0 595 -108 0 -190 -541 0 0 0 541 -66 0 0 -595zm189 -59l0 0zm18 654l0 0zm-268 -610l0 0zm563 15l66 0 0 595 -66 0 0 -595zm34 -59l0 0zm-6 654l0 0zm-106 -610l0 0zm441 564l0 0 141 -549 73 0 -174 595 -81 0 -173 -595 73 0 141 549zm279 46l0 -595 295 0 0 60 -229 0 0 197 215 0 0 59 -215 0 0 220 231 0 0 59 -297 0zm150 -654l0 0zm79 654l0 0zm-287 -610l0 0zm842 610l-79 0c-7,-27 -12,-51 -14,-73 -3,-21 -4,-43 -4,-66 0,-42 -9,-73 -28,-92 -18,-19 -43,-29 -75,-29l-112 0 0 260 -66 0 0 -595 156 0c75,0 126,14 153,42 28,28 42,67 42,117 0,83 -39,130 -116,143 40,5 68,16 82,33 15,17 23,42 24,75 1,30 6,73 13,129 5,27 12,41 24,42l0 14zm-95 -429c0,-71 -41,-106 -125,-106l-92 0 0 215 103 0c76,0 114,-36 114,-109zm-127 -225l0 0zm22 654l0 0zm-246 -610l0 0zm528 421l68 0 0 0 0 30c0,41 9,71 27,88 18,18 46,27 84,27 38,0 66,-9 84,-29 19,-19 29,-45 29,-77 0,-30 -5,-52 -14,-66 -9,-14 -24,-25 -45,-34l-123 -47c-43,-17 -71,-37 -84,-61 -13,-24 -20,-54 -20,-89 0,-47 15,-86 46,-117 31,-31 70,-46 119,-46 55,0 97,13 126,41 29,26 44,59 44,99 0,9 0,18 -1,27l-68 0c1,-6 1,-13 1,-21 0,-23 -9,-43 -26,-60 -17,-18 -39,-27 -66,-27 -38,0 -65,9 -82,27 -17,17 -25,44 -25,80 0,40 20,67 59,83l108 41c46,18 77,38 94,61 16,22 25,53 25,93 0,55 -16,98 -47,132 -31,33 -77,50 -137,50 -54,0 -97,-15 -129,-44 -31,-29 -47,-75 -47,-137l0 -24 0 0zm176 -465l0 0zm4 654l0 0zm296 -595l66 0 0 595 -66 0 0 -595zm33 -59l0 0zm-5 654l0 0zm-106 -610l0 0zm285 610l0 -595 165 0c68,0 119,21 153,62 34,40 51,117 51,231 0,98 -15,173 -46,224 -32,52 -82,78 -150,78l-173 0zm66 -59l104 0c45,0 79,-18 100,-52 21,-35 32,-98 32,-190 0,-77 -10,-135 -29,-174 -20,-40 -55,-60 -106,-60l-101 0 0 476zm93 -595l0 0zm-224 44l0 0zm493 610l167 -595 88 0 167 595 -73 0 -46 -170 0 0 -187 0 0 0 -43 170 -73 0zm132 -230l0 0 155 0 0 0 -77 -321 0 0 -78 321zm78 -424l0 0zm161 654l0 0zm-379 -610l0 0zm506 610l0 -595 164 0c69,0 120,21 154,62 34,40 51,117 51,231 0,98 -15,173 -47,224 -31,52 -81,78 -149,78l-173 0zm66 -59l104 0c45,0 79,-18 100,-52 21,-35 31,-98 31,-190 0,-77 -9,-135 -29,-174 -19,-40 -54,-60 -105,-60l-101 0 0 476zm92 -595l0 0zm-223 44l0 0zm543 610l0 -595 295 0 0 60 -229 0 0 197 215 0 0 59 -215 0 0 220 231 0 0 59 -297 0zm150 -654l0 0zm79 654l0 0zm-287 -610l0 0zm653 610l0 -595 277 0 0 60 -211 0 0 194 195 0 0 59 -195 0 0 282 -66 0zm352 0l0 -595 295 0 0 60 -229 0 0 197 215 0 0 59 -215 0 0 220 231 0 0 59 -297 0zm150 -654l0 0zm79 654l0 0zm-287 -610l0 0zm461 610l0 -595 165 0c68,0 119,21 153,62 34,40 51,117 51,231 0,98 -15,173 -46,224 -32,52 -82,78 -150,78l-173 0zm66 -59l104 0c45,0 79,-18 100,-52 21,-35 32,-98 32,-190 0,-77 -10,-135 -29,-174 -20,-40 -55,-60 -106,-60l-101 0 0 476zm93 -595l0 0zm-224 44l0 0zm543 610l0 -595 295 0 0 60 -229 0 0 197 215 0 0 59 -215 0 0 220 231 0 0 59 -297 0zm150 -654l0 0zm79 654l0 0zm-287 -610l0 0zm842 610l-78 0c-8,-27 -13,-51 -15,-73 -3,-21 -4,-43 -4,-66 0,-42 -9,-73 -27,-92 -19,-19 -44,-29 -75,-29l-113 0 0 260 -66 0 0 -595 156 0c75,0 126,14 154,42 27,28 41,67 41,117 0,83 -39,130 -116,143 41,5 68,16 82,33 15,17 23,42 25,75 0,30 5,73 12,129 5,27 13,41 24,42l0 14zm-95 -429c0,-71 -41,-106 -124,-106l-93 0 0 215 103 0c76,0 114,-36 114,-109zm-127 -225l0 0zm22 654l0 0zm-246 -610l0 0zm493 610l168 -595 87 0 167 595 -73 0 -45 -170 0 0 -188 0 0 0 -43 170 -73 0zm132 -230l0 0 156 0 0 0 -78 -321 0 0 -78 321zm78 -424l0 0zm161 654l0 0zm-379 -610l0 0zm507 15l66 0 0 536 242 0 0 59 -308 0 0 -595zm60 -59l0 0zm109 654l0 0zm-235 -610l0 0zm660 610l0 -595 164 0c69,0 120,21 154,62 34,40 51,117 51,231 0,98 -15,173 -46,224 -32,52 -82,78 -150,78l-173 0zm66 -59l104 0c45,0 79,-18 100,-52 21,-35 31,-98 31,-190 0,-77 -9,-135 -29,-174 -19,-40 -54,-60 -105,-60l-101 0 0 476zm93 -595l0 0zm-224 44l0 0zm543 610l0 -595 295 0 0 60 -229 0 0 197 215 0 0 59 -215 0 0 220 231 0 0 59 -297 0zm150 -654l0 0zm79 654l0 0zm-287 -610l0 0zm660 15l66 0 0 536 242 0 0 59 -308 0 0 -595zm60 -59l0 0zm110 654l0 0zm-235 -610l0 0zm404 610l168 -595 87 0 168 595 -74 0 -45 -170 0 0 -188 0 0 0 -42 170 -74 0zm132 -230l0 0 156 0 0 0 -78 -321 0 0 -78 321zm78 -424l0 0zm162 654l0 0zm-380 -610l0 0zm662 564l0 0 141 -549 73 0 -173 595 -82 0 -173 -595 73 0 141 549zm666 46l-78 0c-7,-27 -12,-51 -15,-73 -3,-21 -4,-43 -4,-66 0,-42 -9,-73 -27,-92 -19,-19 -43,-29 -75,-29l-113 0 0 260 -66 0 0 -595 157 0c74,0 126,14 153,42 28,28 41,67 41,117 0,83 -38,130 -116,143 41,5 68,16 83,33 14,17 22,42 24,75 1,30 5,73 12,129 5,27 13,41 24,42l0 14zm-94 -429c0,-71 -42,-106 -125,-106l-93 0 0 215 104 0c76,0 114,-36 114,-109zm-127 -225l0 0zm22 654l0 0zm-246 -610l0 0zm492 610l168 -595 87 0 168 595 -74 0 -45 -170 0 0 -188 0 0 0 -42 170 -74 0zm132 -230l0 0 156 0 0 0 -78 -321 0 0 -78 321zm78 -424l0 0zm162 654l0 0zm-380 -610l0 0zm485 421l68 0 0 0 0 30c0,41 9,71 27,88 18,18 46,27 84,27 37,0 65,-9 84,-29 19,-19 28,-45 28,-77 0,-30 -4,-52 -13,-66 -9,-14 -24,-25 -46,-34l-123 -47c-42,-17 -70,-37 -83,-61 -13,-24 -20,-54 -20,-89 0,-47 15,-86 46,-117 30,-31 70,-46 119,-46 54,0 96,13 125,41 30,26 45,59 45,99 0,9 -1,18 -2,27l-67 0c0,-6 1,-13 1,-21 -1,-23 -9,-43 -26,-60 -17,-18 -39,-27 -67,-27 -37,0 -64,9 -81,27 -17,17 -25,44 -25,80 0,40 19,67 59,83l108 41c46,18 77,38 94,61 16,22 24,53 24,93 0,55 -15,98 -46,132 -31,33 -77,50 -138,50 -54,0 -96,-15 -128,-44 -32,-29 -47,-75 -47,-137l0 -24 0 0zm176 -465l0 0zm3 654l0 0z"/>
   <path class="fil1" d="M3586 1222c1302,0 2363,1062 2363,2364 0,892 -499,1671 -1232,2073l10258 0 0 280 -11174 0c-3,1 -6,1 -8,1l799 -3925 -3186 2483c-118,-281 -184,-589 -184,-912 0,-1302 1062,-2364 2364,-2364zm-11 4727c-95,0 -188,-6 -280,-18l596 -2757 -2222 1792c-60,-83 -114,-170 -163,-260l2812 -2203 -743 3446zm-551 -67c-482,-119 -907,-386 -1223,-750l1815 -1470 -592 2220z"/>
   <g style="clip-path:url(#id0)">
    <g>
     <path id="1" class="fil2" style="mask:url(#id1)" d="M3573 697c1220,0 2210,989 2210,2210 0,1221 -990,2211 -2210,2211 -1221,0 -2211,-990 -2211,-2211 0,-1221 990,-2210 2211,-2210z"/>
     <path class="fil2" style="mask:url(#id3)" d="M3552 1300c772,0 1398,389 1398,869 0,480 -626,869 -1398,869 -772,0 -1398,-389 -1398,-869 0,-480 626,-869 1398,-869z"/>
     <path class="fil2" style="mask:url(#id5)" d="M3552 1300c772,0 1398,389 1398,869 0,480 -626,869 -1398,869 -772,0 -1398,-389 -1398,-869 0,-480 626,-869 1398,-869z"/>
     <path class="fil1" style="mask:url(#id7)" d="M3594 1252c1291,0 2344,1053 2344,2344 0,890 -501,1667 -1235,2063l10272 0 0 272 -11180 0 45 -76 811 -3888 -3228 2510c-111,-272 -173,-570 -173,-881 0,-1291 1053,-2344 2344,-2344zm1 4687c0,0 -1,0 -1,0 -104,0 -206,-7 -306,-20l610 -2749 -2223 1768c-58,-83 -111,-169 -158,-259l2803 -2171 -725 3431zm-559 -67c-484,-119 -909,-389 -1223,-756l1800 -1449 -577 2205z"/>
    </g>
   </g>
   <path class="fil3" d="M3586 1222c1302,0 2363,1062 2363,2364 0,892 -499,1671 -1232,2073l10258 0 0 280 -11174 0c-3,1 -6,1 -8,1l799 -3925 -3186 2483c-118,-281 -184,-589 -184,-912 0,-1302 1062,-2364 2364,-2364zm-11 4727c-95,0 -188,-6 -280,-18l596 -2757 -2222 1792c-60,-83 -114,-170 -163,-260l2812 -2203 -743 3446zm-551 -67c-482,-119 -907,-386 -1223,-750l1815 -1470 -592 2220z"/>
   <path class="fil2" d="M3795 5931c-65,5 -130,8 -196,8 -7,0 -14,0 -22,0l741 -3436 -2792 2188c-37,-68 -69,-138 -99,-209l3165 -2467 -797 3916zm-498 -11c-91,-12 -181,-29 -269,-51l588 -2207 -1798 1457c-46,-54 -90,-110 -131,-167l2204 -1778 -594 2746z"/>
  </g>
 </g>
</svg>
